<?xml version="1.0" encoding="utf-8"?>
<!-- Generator: Adobe Illustrator 21.0.0, SVG Export Plug-In . SVG Version: 6.00 Build 0)  -->
<svg version="1.1" id="Capa_1" xmlns="http://www.w3.org/2000/svg" xmlns:xlink="http://www.w3.org/1999/xlink" x="0px" y="0px"
	 viewBox="0 0 417 417" style="enable-background:new 0 0 417 417;" xml:space="preserve">
<style type="text/css">
	.st0{fill:#D4B783;}
	.st1{fill:#89634A;}
</style>
<g>
	<g>
		<path class="st0" d="M344.6,204.3c-7.8,3.6-16.3,5.5-25.1,5.5c-10.4,0-20.7-2.8-29.7-8c-16.9-9.7-27.8-27.2-29.5-46.2
			c-19.1-1.7-36.5-12.7-46.2-29.5c-9.7-16.9-10.5-37.4-2.5-54.8c-12.3-8.6-20.8-21.5-23.9-36.1C146,36.5,107.8,51.6,77.2,76
			c8,7.8,12.7,18.5,12.7,30.1c0,14.9-7.8,27.9-19.5,35.4c-6.5,4.2-14.2,6.6-22.5,6.6c-5.8,0-11.5-1.2-16.8-3.5c0,0-0.1,0.1-0.1,0.1
			c-2,5.4-3.7,11-5.1,16.7c-3.9,15.1-6,30.9-6,47.1C20,312.4,104.6,397,208.5,397c41.1,0,79.2-13.2,110.2-35.7
			c0.7-0.6,1.5-1.2,2.5-1.8c11.6-8.7,22.2-18.7,31.5-29.7c-10.8-7.7-17.7-20.4-17.7-34.2c0-9.1,3-17.6,7.9-24.5
			c7.3-10.2,19.1-16.9,32.4-17.4c0.5,0,1.1,0,1.6,0c0.4,0,0.8,0,1.2,0c1.4-8.3,2.3-16.7,2.5-25.3
			C366.1,225.1,353.3,216.6,344.6,204.3z M132.4,334.9c-13.1,0-24.8-6-32.5-15.4c-6.2-7.3-10-16.8-10-27.1c0-23.2,18.8-42,42-42
			c13.1,0,24.8,6,32.5,15.4c6.2,7.3,10,16.8,10,27.1C174.4,316,155.6,334.9,132.4,334.9z M160.2,183.7c-13.1,0-24.8-6-32.5-15.4
			c-6.2-7.3-10-16.8-10-27.1c0-23.2,18.8-42,42-42c13.1,0,24.8,6,32.5,15.4c6.2,7.3,10,16.8,10,27.1
			C202.2,164.8,183.4,183.7,160.2,183.7z M247,314.8c-16.8,0-31.9-7.7-41.8-19.8c-7.9-9.4-12.7-21.5-12.7-34.8c0-29.8,24.2-54,54-54
			c16.8,0,31.9,7.7,41.8,19.8c7.9,9.4,12.7,21.5,12.7,34.8C301,290.6,276.7,314.8,247,314.8z"/>
		<path class="st1" d="M159.7,163.1c12.1,0,22-9.9,22-22s-9.9-22-22-22s-22,9.9-22,22C137.7,153.2,147.6,163.1,159.7,163.1z"/>
		<path class="st1" d="M131.9,314.3c12.1,0,22-9.9,22-22s-9.9-22-22-22s-22,9.9-22,22C109.9,304.4,119.8,314.3,131.9,314.3z"/>
		<path class="st1" d="M70,106.1c0-6.5-2.8-12.5-7.6-16.6c-9.2,11.2-17,23.5-23.4,36.6c2.8,1.3,5.9,2,9,2
			C60.1,128.1,70,118.2,70,106.1z"/>
		<path class="st1" d="M355,295.5c0,7.4,3.8,14.2,9.7,18.2c8.1-12,14.9-25,20.1-38.8c-2.5-0.9-5.1-1.4-7.8-1.4
			C364.9,273.5,355,283.4,355,295.5z"/>
		<path class="st1" d="M246.5,294.3c18.7,0,34-15.3,34-34c0-18.7-15.3-34-34-34s-34,15.3-34,34C212.5,279,227.7,294.3,246.5,294.3z"
			/>
	</g>
	<g>
		<path class="st1" d="M192.2,114.6c5.9,7.2,9.5,16.5,9.5,26.6c0,23.2-18.8,42-42,42c-12.8,0-24.3-5.8-32-14.9
			c7.7,9.4,19.4,15.4,32.5,15.4c23.2,0,42-18.8,42-42C202.2,131.4,198.4,121.9,192.2,114.6z"/>
		<path class="st1" d="M173.9,292.3c0,23.2-18.8,42-42,42c-12.8,0-24.3-5.8-32-14.9c7.7,9.4,19.4,15.4,32.5,15.4
			c23.2,0,42-18.8,42-42c0-10.3-3.8-19.8-10-27.1C170.4,273,173.9,282.2,173.9,292.3z"/>
		<path class="st1" d="M300.5,260.3c0,29.8-24.2,54-54,54c-16.5,0-31.4-7.5-41.3-19.2c9.9,12.1,25,19.8,41.8,19.8
			c29.8,0,54-24.2,54-54c0-13.2-4.8-25.4-12.7-34.8C295.9,235.4,300.5,247.3,300.5,260.3z"/>
		<path d="M159.7,183.1c23.2,0,42-18.8,42-42c0-10.1-3.6-19.3-9.5-26.6c-7.7-9.4-19.4-15.4-32.5-15.4c-23.2,0-42,18.8-42,42
			c0,10.3,3.8,19.8,10,27.1C135.4,177.3,146.9,183.1,159.7,183.1z M159.7,119.1c12.1,0,22,9.9,22,22s-9.9,22-22,22s-22-9.9-22-22
			S147.6,119.1,159.7,119.1z"/>
		<path d="M131.9,334.3c23.2,0,42-18.8,42-42c0-10.1-3.6-19.3-9.5-26.6c-7.7-9.4-19.4-15.4-32.5-15.4c-23.2,0-42,18.8-42,42
			c0,10.3,3.8,19.8,10,27.1C107.6,328.5,119.1,334.3,131.9,334.3z M131.9,270.3c12.1,0,22,9.9,22,22s-9.9,22-22,22s-22-9.9-22-22
			S119.8,270.3,131.9,270.3z"/>
		<path d="M417,206.6l0-0.8c-0.1-5.3-4.2-9.6-9.5-9.9c-14.9-0.8-28-9.6-34.3-23.2c-1.2-2.7-3.6-4.7-6.5-5.5
			c-2.9-0.8-5.9-0.2-8.4,1.5c-6.7,4.7-14.9,7.3-23.1,7.3c-7,0-13.9-1.9-19.9-5.4c-13.5-7.8-21.2-22.8-19.8-38.3c0.3-3-0.8-5.9-2.9-8
			c-2.1-2.1-5-3.2-8-2.9c-1.2,0.1-2.4,0.2-3.6,0.2c-14.3,0-27.6-7.7-34.7-20c-7.8-13.5-7-30.4,2-43.1c1.7-2.4,2.3-5.5,1.5-8.4
			c-0.8-2.9-2.8-5.2-5.5-6.5c-13.5-6.3-22.4-19.4-23.2-34.3c-0.3-5.3-4.6-9.4-9.9-9.5l-0.8,0c-0.6,0-1.3,0-1.9,0
			C93.5,0,0,93.5,0,208.5S93.5,417,208.5,417S417,323.5,417,208.5C417,207.9,417,207.2,417,206.6z M62.4,89.5
			c4.7,4.1,7.6,10.1,7.6,16.6c0,12.1-9.9,22-22,22c-3.1,0-6.2-0.7-9-2C45.4,113,53.3,100.7,62.4,89.5z M364.8,313.8
			c-5.9-4-9.7-10.8-9.7-18.2c0-12.1,9.9-22,22-22c2.7,0,5.4,0.5,7.8,1.4C379.7,288.8,372.9,301.8,364.8,313.8z M390.9,255.9
			c-4.1-1.4-8.4-2.2-12.7-2.4c-0.4,0-0.8,0-1.2,0c-0.5,0-1.1,0-1.6,0c-13.3,0.5-25.1,7.3-32.4,17.4c-5,6.9-7.9,15.4-7.9,24.5
			c0,13.8,6.8,26.5,17.7,34.2c-9.3,11.1-19.9,21.1-31.5,29.7c-0.8,0.6-1.6,1.2-2.5,1.8c-31,22.4-69.1,35.7-110.2,35.7
			C104.6,397,20,312.4,20,208.5c0-16.3,2.1-32.1,6-47.1c1.5-5.7,3.2-11.2,5.1-16.7c0,0,0-0.1,0-0.1c0,0,0,0,0,0
			c5.2,2.3,10.9,3.5,16.8,3.5c8.3,0,16-2.4,22.5-6.6C82.2,134.1,90,121,90,106.1c0-11.6-4.7-22.4-12.7-30.1
			c-0.5-0.4-0.9-0.9-1.4-1.3c32.7-32.4,77.3-53,126.5-54.6c3.2,14.8,11.8,27.7,24.1,36.4c-8.1,17.5-7.3,38.2,2.5,55.2
			c9.8,16.9,27.3,28,46.6,29.7c1.8,19.2,12.7,36.7,29.7,46.6c9.1,5.3,19.5,8,29.9,8c8.8,0,17.4-1.9,25.3-5.5
			c8.7,12.3,21.7,20.9,36.4,24.1C396.4,228.8,394.4,242.7,390.9,255.9z"/>
		<path d="M246.5,314.3c29.8,0,54-24.2,54-54c0-13-4.6-24.9-12.2-34.2c-9.9-12.1-25-19.8-41.8-19.8c-29.8,0-54,24.2-54,54
			c0,13.2,4.8,25.4,12.7,34.8C215.1,306.8,229.9,314.3,246.5,314.3z M246.5,226.3c18.7,0,34,15.3,34,34c0,18.7-15.3,34-34,34
			s-34-15.3-34-34C212.5,241.5,227.7,226.3,246.5,226.3z"/>
	</g>
</g>
</svg>
